<svg width="244" height="261" viewBox="0 0 244 261" fill="none" xmlns="http://www.w3.org/2000/svg">
<path d="M243.25 139C243.25 206.067 188.693 260.625 121.625 260.625C91.3926 260.625 62.4632 249.418 40.0494 229.176C36.7482 226.222 36.2269 221.271 38.8332 217.709C53.8626 196.772 74.2782 182.09 99.5597 174.184C169.146 152.118 198.337 108.681 181.743 51.6906C180.701 48.1287 182.091 44.2194 185.132 42.1344C188.259 39.9625 192.342 40.0494 195.296 42.3081C225.788 65.4169 243.25 100.688 243.25 139Z" fill="#16BCD4"/>
<path d="M104.771 190.691C83.1394 197.554 65.7644 209.977 52.9069 227.786C51.5169 229.871 49.2581 231.087 46.8256 231.348C46.4781 231.435 46.2175 231.435 45.87 231.435C43.6981 231.435 41.6123 230.653 40.0494 229.176C14.595 206.154 0 173.316 0 139C0 112.416 8.42687 87.1356 24.4119 66.025C24.9331 65.33 25.5412 64.7219 26.2362 64.2006L79.8381 25.1938C80.5331 24.6725 81.315 24.325 82.0969 24.0644C94.7806 19.6337 108.073 17.375 121.625 17.375C148.556 17.375 174.097 25.9756 195.382 42.395C196.859 43.5244 197.901 45.0881 198.423 46.8256C207.544 78.2744 216.753 155.246 104.771 190.691Z" fill="#1C8CE2"/>
<path d="M95.5625 43.4375C95.5625 64.4613 80.62 82.01 60.8125 86.0062V147.688C60.8125 152.466 56.9031 156.375 52.125 156.375C47.3469 156.375 43.4375 152.466 43.4375 147.688V86.0062C23.63 82.01 8.6875 64.4613 8.6875 43.4375C8.6875 19.46 28.1475 0 52.125 0C76.1025 0 95.5625 19.46 95.5625 43.4375Z" fill="white"/>
</svg>
