<svg width="826" height="297" viewBox="0 0 826 297" fill="none" xmlns="http://www.w3.org/2000/svg">
<path d="M243.25 147.687C243.25 214.755 188.693 269.312 121.625 269.312C91.3926 269.312 62.4632 258.106 40.0494 237.864C36.7482 234.91 36.2269 229.958 38.8332 226.396C53.8626 205.459 74.2782 190.777 99.5597 182.872C169.146 160.806 198.337 117.368 181.743 60.3781C180.701 56.8162 182.091 52.9069 185.132 50.8219C188.259 48.65 192.342 48.7369 195.296 50.9956C225.788 74.1044 243.25 109.376 243.25 147.687Z" fill="#16BCD4"/>
<path d="M104.771 199.378C83.1394 206.241 65.7644 218.664 52.9069 236.474C51.5169 238.559 49.2581 239.775 46.8256 240.036C46.4781 240.122 46.2175 240.122 45.87 240.122C43.6981 240.122 41.6123 239.341 40.0494 237.864C14.595 214.842 0 182.003 0 147.688C0 121.104 8.42687 95.8231 24.4119 74.7125C24.9331 74.0175 25.5412 73.4094 26.2362 72.8881L79.8381 33.8813C80.5331 33.36 81.315 33.0125 82.0969 32.7519C94.7806 28.3212 108.073 26.0625 121.625 26.0625C148.556 26.0625 174.097 34.6631 195.382 51.0825C196.859 52.2119 197.901 53.7756 198.423 55.5131C207.544 86.9619 216.753 163.933 104.771 199.378Z" fill="#1C8CE2"/>
<path d="M95.5625 52.125C95.5625 73.1488 80.62 90.6975 60.8125 94.6937V156.375C60.8125 161.153 56.9031 165.062 52.125 165.062C47.3469 165.062 43.4375 161.153 43.4375 156.375V94.6937C23.63 90.6975 8.6875 73.1488 8.6875 52.125C8.6875 28.1475 28.1475 8.6875 52.125 8.6875C76.1025 8.6875 95.5625 28.1475 95.5625 52.125Z" fill="white"/>
<path d="M166.6 146V5.99999H199V146H166.6ZM261.639 146L201.239 5.99999H236.239L289.039 130H268.439L322.039 5.99999H354.239L293.639 146H261.639ZM419.966 148.4C408.899 148.4 398.699 146.667 389.366 143.2C380.166 139.6 372.099 134.533 365.166 128C358.366 121.467 353.032 113.8 349.166 105C345.432 96.2 343.566 86.5333 343.566 76C343.566 65.4667 345.432 55.8 349.166 47C353.032 38.2 358.432 30.5333 365.366 24C372.299 17.4667 380.432 12.4667 389.766 8.99999C399.099 5.39999 409.366 3.6 420.566 3.6C432.966 3.6 444.099 5.66666 453.966 9.79999C463.966 13.9333 472.366 19.9333 479.166 27.8L458.366 47C453.299 41.6667 447.766 37.7333 441.766 35.2C435.766 32.5333 429.232 31.2 422.166 31.2C415.366 31.2 409.166 32.2667 403.566 34.4C397.966 36.5333 393.099 39.6 388.966 43.6C384.966 47.6 381.832 52.3333 379.566 57.8C377.432 63.2667 376.366 69.3333 376.366 76C376.366 82.5333 377.432 88.5333 379.566 94C381.832 99.4667 384.966 104.267 388.966 108.4C393.099 112.4 397.899 115.467 403.366 117.6C408.966 119.733 415.099 120.8 421.766 120.8C428.166 120.8 434.366 119.8 440.366 117.8C446.499 115.667 452.432 112.133 458.166 107.2L476.566 130.6C468.966 136.333 460.099 140.733 449.966 143.8C439.966 146.867 429.966 148.4 419.966 148.4ZM446.966 126.4V73.8H476.566V130.6L446.966 126.4ZM524.463 62.4H591.863V87.6H524.463V62.4ZM526.863 120H603.062V146H494.663V5.99999H600.463V32H526.863V120ZM684.842 148.4C673.776 148.4 663.509 146.6 654.042 143C644.709 139.4 636.576 134.333 629.642 127.8C622.842 121.267 617.509 113.6 613.642 104.8C609.909 96 608.042 86.4 608.042 76C608.042 65.6 609.909 56 613.642 47.2C617.509 38.4 622.909 30.7333 629.842 24.2C636.776 17.6667 644.909 12.6 654.242 8.99999C663.576 5.39999 673.709 3.6 684.642 3.6C695.709 3.6 705.842 5.39999 715.042 8.99999C724.376 12.6 732.442 17.6667 739.242 24.2C746.176 30.7333 751.576 38.4 755.442 47.2C759.309 55.8667 761.242 65.4667 761.242 76C761.242 86.4 759.309 96.0667 755.442 105C751.576 113.8 746.176 121.467 739.242 128C732.442 134.4 724.376 139.4 715.042 143C705.842 146.6 695.776 148.4 684.842 148.4ZM684.642 120.8C690.909 120.8 696.642 119.733 701.842 117.6C707.176 115.467 711.842 112.4 715.842 108.4C719.842 104.4 722.909 99.6667 725.042 94.2C727.309 88.7333 728.442 82.6667 728.442 76C728.442 69.3333 727.309 63.2667 725.042 57.8C722.909 52.3333 719.842 47.6 715.842 43.6C711.976 39.6 707.376 36.5333 702.042 34.4C696.709 32.2667 690.909 31.2 684.642 31.2C678.376 31.2 672.576 32.2667 667.242 34.4C662.042 36.5333 657.442 39.6 653.442 43.6C649.442 47.6 646.309 52.3333 644.042 57.8C641.909 63.2667 640.842 69.3333 640.842 76C640.842 82.5333 641.909 88.6 644.042 94.2C646.309 99.6667 649.376 104.4 653.242 108.4C657.242 112.4 661.909 115.467 667.242 117.6C672.576 119.733 678.376 120.8 684.642 120.8ZM166.6 294V154H193.4L253 252.8H238.8L297.4 154H324L324.4 294H294L293.8 200.6H299.4L252.6 279.2H238L190.2 200.6H197V294H166.6ZM327.216 294L389.616 154H421.616L484.216 294H450.216L399.016 170.4H411.816L360.416 294H327.216ZM358.416 264L367.016 239.4H439.016L447.816 264H358.416ZM486.741 294V154H547.341C559.874 154 570.674 156.067 579.741 160.2C588.807 164.2 595.807 170 600.741 177.6C605.674 185.2 608.141 194.267 608.141 204.8C608.141 215.2 605.674 224.2 600.741 231.8C595.807 239.4 588.807 245.267 579.741 249.4C570.674 253.4 559.874 255.4 547.341 255.4H504.741L519.141 240.8V294H486.741ZM519.141 244.4L504.741 229H545.541C555.541 229 563.007 226.867 567.941 222.6C572.874 218.333 575.341 212.4 575.341 204.8C575.341 197.067 572.874 191.067 567.941 186.8C563.007 182.533 555.541 180.4 545.541 180.4H504.741L519.141 165V244.4ZM667.225 296.4C656.025 296.4 645.292 294.933 635.025 292C624.758 288.933 616.492 285 610.225 280.2L621.225 255.8C627.225 260.067 634.292 263.6 642.425 266.4C650.692 269.067 659.025 270.4 667.425 270.4C673.825 270.4 678.958 269.8 682.825 268.6C686.825 267.267 689.758 265.467 691.625 263.2C693.492 260.933 694.425 258.333 694.425 255.4C694.425 251.667 692.958 248.733 690.025 246.6C687.092 244.333 683.225 242.533 678.425 241.2C673.625 239.733 668.292 238.4 662.425 237.2C656.692 235.867 650.892 234.267 645.025 232.4C639.292 230.533 634.025 228.133 629.225 225.2C624.425 222.267 620.492 218.4 617.425 213.6C614.492 208.8 613.025 202.667 613.025 195.2C613.025 187.2 615.158 179.933 619.425 173.4C623.825 166.733 630.358 161.467 639.025 157.6C647.825 153.6 658.825 151.6 672.025 151.6C680.825 151.6 689.492 152.667 698.025 154.8C706.558 156.8 714.092 159.867 720.625 164L710.625 188.6C704.092 184.867 697.558 182.133 691.025 180.4C684.492 178.533 678.092 177.6 671.825 177.6C665.558 177.6 660.425 178.333 656.425 179.8C652.425 181.267 649.558 183.2 647.825 185.6C646.092 187.867 645.225 190.533 645.225 193.6C645.225 197.2 646.692 200.133 649.625 202.4C652.558 204.533 656.425 206.267 661.225 207.6C666.025 208.933 671.292 210.267 677.025 211.6C682.892 212.933 688.692 214.467 694.425 216.2C700.292 217.933 705.625 220.267 710.425 223.2C715.225 226.133 719.092 230 722.025 234.8C725.092 239.6 726.625 245.667 726.625 253C726.625 260.867 724.425 268.067 720.025 274.6C715.625 281.133 709.025 286.4 700.225 290.4C691.558 294.4 680.558 296.4 667.225 296.4Z" fill="#F9FAFF"/>
<path d="M174 148L818 148" stroke="url(#paint0_linear_21_38)" stroke-width="15" stroke-linecap="square"/>
<defs>
<linearGradient id="paint0_linear_21_38" x1="174" y1="148.5" x2="781" y2="148.5" gradientUnits="userSpaceOnUse">
<stop offset="0.927512" stop-color="white"/>
<stop offset="1" stop-color="#6A6B70" stop-opacity="0"/>
</linearGradient>
</defs>
</svg>
